<svg width="200" height="200" viewBox="0 0 200 200" fill="none" xmlns="http://www.w3.org/2000/svg">
<rect width="200" height="200" rx="43" fill="#4ECDC4"/>
<path d="M180.634 90.6341C179.821 86.1744 178.657 81.9027 177.185 77.8707C177.974 74.5835 178.401 71.1017 178.401 67.4936C178.401 47.5043 165.432 31.2999 149.433 31.2999C142.431 31.2999 136.008 34.4046 131 39.5723C126.452 33.701 119.772 30.0007 112.325 30.0007H107.252C107.215 30.0006 107.178 30 107.141 30C90.5716 30 18 30 18 30C18 30 23.7484 34.439 32.3787 40.8184H48.2914V42.6865H34.9136C39.3125 45.9191 44.3134 49.5445 49.6001 53.2867H60.8267V55.1547H52.2495C57.302 58.7031 62.5591 62.3133 67.7573 65.7549H75.3748V67.6229H70.5991C78.5018 72.78 86.1512 77.4426 92.6018 80.7868C92.6016 80.7874 92.6014 80.788 92.6012 80.7886C90.145 88.466 88.7836 96.9423 88.7836 105.843C88.7836 112.107 89.462 118.149 90.7111 123.861C96.4374 149.962 114.271 169 135.39 169C137.443 169 139.464 168.823 141.443 168.474C124.437 165.038 111.394 145.162 111.394 121.166C111.394 107.016 115.932 94.3049 123.137 85.5433C124.564 83.8125 126.098 82.2339 127.722 80.8329C133.205 76.0844 139.712 73.3266 146.697 73.3266C147.123 73.3266 147.544 73.3456 147.965 73.371C154.473 73.6817 160.522 76.376 165.668 80.833C167.436 82.3608 169.092 84.0852 170.627 85.9999C172.409 88.2315 174.019 90.7103 175.432 93.3857C178.014 98.2863 179.928 103.865 181.004 109.888C181.247 111.258 181.453 112.64 181.607 114.047C181.733 112.728 181.827 111.403 181.892 110.059C181.963 108.664 182 107.263 182 105.843C182 100.6 181.523 95.5094 180.634 90.6341ZM169.724 65.405C168.798 65.405 168.047 64.3874 168.047 63.1322C168.047 61.8769 168.798 60.8594 169.724 60.8594C170.65 60.8594 171.401 61.8769 171.401 63.1322C171.401 64.3874 170.65 65.405 169.724 65.405Z" fill="#171717"/>
</svg>
