<svg width="536" height="141" viewBox="0 0 536 141" fill="none" xmlns="http://www.w3.org/2000/svg">
<rect width="536" height="141" fill="#FEFFFF"/>
<rect x="4" y="5.26115" width="395" height="130.478" fill="#292F36"/>
<path d="M21.3371 70.2612C19.5991 70.2612 17.9928 69.8398 16.5181 68.9972C15.0961 68.1545 13.9638 67.0222 13.1211 65.6002C12.2784 64.1255 11.8571 62.5192 11.8571 60.7812V22.8612C11.8571 21.1232 12.2784 19.5432 13.1211 18.1212C13.9638 16.6465 15.0961 15.4878 16.5181 14.6451C17.9928 13.8025 19.5991 13.3812 21.3371 13.3812H68.5791V19.7801H21.3371C20.4944 19.7801 19.7571 20.0962 19.1251 20.7282C18.5458 21.3075 18.2561 22.0185 18.2561 22.8612V60.7812C18.2561 61.6238 18.5458 62.3612 19.1251 62.9932C19.7571 63.5725 20.4944 63.8622 21.3371 63.8622H68.5791V70.2612H21.3371ZM76.9741 70.2612V22.8612C76.9741 21.1232 77.3954 19.5432 78.2381 18.1212C79.0808 16.6465 80.2131 15.4878 81.6351 14.6451C83.1098 13.8025 84.7161 13.3812 86.4541 13.3812H124.374C126.112 13.3812 127.692 13.8025 129.114 14.6451C130.589 15.4878 131.747 16.6465 132.59 18.1212C133.433 19.5432 133.854 21.1232 133.854 22.8612V70.2612H127.455V49.4842H83.3731V70.2612H76.9741ZM83.3731 43.0852H127.455V22.8612C127.455 22.0185 127.139 21.3075 126.507 20.7282C125.928 20.0962 125.217 19.7801 124.374 19.7801H86.4541C85.6114 19.7801 84.8741 20.0962 84.2421 20.7282C83.6628 21.3075 83.3731 22.0185 83.3731 22.8612V43.0852ZM190.887 70.2612L172.322 48.1412H180.696L199.34 70.1822V70.2612H190.887ZM142.855 70.2612V13.4602H190.255C191.993 13.4602 193.573 13.9078 194.995 14.8032C196.47 15.6458 197.628 16.7782 198.471 18.2002C199.314 19.6222 199.735 21.2022 199.735 22.9402V39.6092C199.735 41.3472 199.314 42.9272 198.471 44.3492C197.628 45.7712 196.47 46.9298 194.995 47.8252C193.573 48.6678 191.993 49.0892 190.255 49.0892H149.254V70.2612H142.855ZM152.335 42.6112H190.255C191.098 42.6112 191.809 42.3215 192.388 41.7422C193.02 41.1628 193.336 40.4518 193.336 39.6092V22.9402C193.336 22.0975 193.02 21.3865 192.388 20.8072C191.809 20.1752 191.098 19.8592 190.255 19.8592H152.335C151.492 19.8592 150.755 20.1752 150.123 20.8072C149.544 21.3865 149.254 22.0975 149.254 22.9402V39.6092C149.254 40.4518 149.544 41.1628 150.123 41.7422C150.755 42.3215 151.492 42.6112 152.335 42.6112ZM208.125 70.2612V13.3022H214.524V63.8622H265.005V70.2612H208.125ZM278.932 70.2612C277.194 70.2612 275.588 69.8398 274.113 68.9972C272.691 68.1545 271.559 67.0222 270.716 65.6002C269.873 64.1255 269.452 62.5192 269.452 60.7812V22.8612C269.452 21.1232 269.873 19.5432 270.716 18.1212C271.559 16.6465 272.691 15.4878 274.113 14.6451C275.588 13.8025 277.194 13.3812 278.932 13.3812H316.852C318.59 13.3812 320.17 13.8025 321.592 14.6451C323.067 15.4878 324.225 16.6465 325.068 18.1212C325.911 19.5432 326.332 21.1232 326.332 22.8612V60.7812C326.332 62.5192 325.911 64.1255 325.068 65.6002C324.225 67.0222 323.067 68.1545 321.592 68.9972C320.17 69.8398 318.59 70.2612 316.852 70.2612H278.932ZM278.932 63.8622H316.852C317.695 63.8622 318.406 63.5725 318.985 62.9932C319.617 62.3612 319.933 61.6238 319.933 60.7812V22.8612C319.933 22.0185 319.617 21.3075 318.985 20.7282C318.406 20.0962 317.695 19.7801 316.852 19.7801H278.932C278.089 19.7801 277.352 20.0962 276.72 20.7282C276.141 21.3075 275.851 22.0185 275.851 22.8612V60.7812C275.851 61.6238 276.141 62.3612 276.72 62.9932C277.352 63.5725 278.089 63.8622 278.932 63.8622ZM344.117 70.2612C342.379 70.2612 340.773 69.8398 339.298 68.9972C337.876 68.1545 336.744 67.0222 335.901 65.6002C335.058 64.1255 334.637 62.5192 334.637 60.7812V58.5692H341.036V60.7812C341.036 61.6238 341.326 62.3612 341.905 62.9932C342.537 63.5725 343.274 63.8622 344.117 63.8622H382.037C382.88 63.8622 383.591 63.5725 384.17 62.9932C384.802 62.3612 385.118 61.6238 385.118 60.7812V48.0622C385.118 47.2195 384.802 46.5085 384.17 45.9292C383.591 45.3498 382.88 45.0602 382.037 45.0602H344.117C342.379 45.0602 340.773 44.6388 339.298 43.7962C337.876 42.9008 336.744 41.7422 335.901 40.3202C335.058 38.8982 334.637 37.3182 334.637 35.5802V22.8612C334.637 21.1232 335.058 19.5432 335.901 18.1212C336.744 16.6465 337.876 15.4878 339.298 14.6451C340.773 13.8025 342.379 13.3812 344.117 13.3812H382.037C383.775 13.3812 385.355 13.8025 386.777 14.6451C388.252 15.4878 389.41 16.6465 390.253 18.1212C391.096 19.5432 391.517 21.1232 391.517 22.8612V25.0732H385.118V22.8612C385.118 22.0185 384.802 21.3075 384.17 20.7282C383.591 20.0962 382.88 19.7801 382.037 19.7801H344.117C343.274 19.7801 342.537 20.0962 341.905 20.7282C341.326 21.3075 341.036 22.0185 341.036 22.8612V35.5802C341.036 36.4228 341.326 37.1338 341.905 37.7132C342.537 38.2925 343.274 38.5822 344.117 38.5822H382.037C383.775 38.5822 385.355 39.0298 386.777 39.9252C388.252 40.7678 389.41 41.9002 390.253 43.3222C391.096 44.7442 391.517 46.3242 391.517 48.0622V60.7812C391.517 62.5192 391.096 64.1255 390.253 65.6002C389.41 67.0222 388.252 68.1545 386.777 68.9972C385.355 69.8398 383.775 70.2612 382.037 70.2612H344.117Z" fill="white"/>
<path d="M36.1102 128.127L12.091 86.6549H17.563L38.8174 123.576L60.0142 86.6549H65.4862L41.5246 128.127H36.1102ZM69.0471 128.127V93.5669C69.0471 92.2997 69.3543 91.1477 69.9687 90.1109C70.5831 89.0357 71.4087 88.1909 72.4455 87.5765C73.5207 86.9621 74.6919 86.6549 75.9591 86.6549H103.607C104.874 86.6549 106.026 86.9621 107.063 87.5765C108.138 88.1909 108.983 89.0357 109.597 90.1109C110.212 91.1477 110.519 92.2997 110.519 93.5669V128.127H105.853V112.978H73.7127V128.127H69.0471ZM73.7127 108.312H105.853V93.5669C105.853 92.9525 105.623 92.4341 105.162 92.0117C104.74 91.5509 104.221 91.3205 103.607 91.3205H75.9591C75.3447 91.3205 74.8071 91.5509 74.3463 92.0117C73.9239 92.4341 73.7127 92.9525 73.7127 93.5669V108.312ZM117.139 128.127V86.5973H121.805V123.461H158.611V128.127H117.139ZM162.085 128.127V86.6549H196.645C197.912 86.6549 199.064 86.9621 200.101 87.5765C201.176 88.1909 202.021 89.0357 202.635 90.1109C203.249 91.1477 203.557 92.2997 203.557 93.5669V121.215C203.557 122.482 203.249 123.653 202.635 124.728C202.021 125.765 201.176 126.591 200.101 127.205C199.064 127.82 197.912 128.127 196.645 128.127H162.085ZM168.997 123.461H196.645C197.259 123.461 197.777 123.25 198.2 122.828C198.661 122.367 198.891 121.829 198.891 121.215V93.5669C198.891 92.9525 198.661 92.4341 198.2 92.0117C197.777 91.5509 197.259 91.3205 196.645 91.3205H168.997C168.382 91.3205 167.845 91.5509 167.384 92.0117C166.961 92.4341 166.75 92.9525 166.75 93.5669V121.215C166.75 121.829 166.961 122.367 167.384 122.828C167.845 123.25 168.382 123.461 168.997 123.461ZM210.122 128.127V86.6549H247.965V91.3205H214.788V105.029H241.456V109.752H214.788V123.461H247.965V128.127H210.122ZM289.128 128.127L275.592 111.999H281.697L295.291 128.069V128.127H289.128ZM254.107 128.127V86.7125H288.667C289.934 86.7125 291.086 87.0389 292.123 87.6917C293.198 88.3061 294.043 89.1317 294.657 90.1685C295.272 91.2053 295.579 92.3573 295.579 93.6245V105.778C295.579 107.045 295.272 108.197 294.657 109.234C294.043 110.271 293.198 111.116 292.123 111.768C291.086 112.383 289.934 112.69 288.667 112.69H258.772V128.127H254.107ZM261.019 107.967H288.667C289.281 107.967 289.8 107.756 290.222 107.333C290.683 106.911 290.913 106.392 290.913 105.778V93.6245C290.913 93.0101 290.683 92.4917 290.222 92.0693C289.8 91.6085 289.281 91.3781 288.667 91.3781H261.019C260.404 91.3781 259.867 91.6085 259.406 92.0693C258.984 92.4917 258.772 93.0101 258.772 93.6245V105.778C258.772 106.392 258.984 106.911 259.406 107.333C259.867 107.756 260.404 107.967 261.019 107.967ZM301.753 128.127V93.5669C301.753 92.2997 302.061 91.1477 302.675 90.1109C303.289 89.0357 304.115 88.1909 305.152 87.5765C306.227 86.9621 307.398 86.6549 308.665 86.6549H336.313C337.581 86.6549 338.733 86.9621 339.769 87.5765C340.845 88.1909 341.689 89.0357 342.304 90.1109C342.918 91.1477 343.225 92.2997 343.225 93.5669V128.127H338.56V112.978H306.419V128.127H301.753ZM306.419 108.312H338.56V93.5669C338.56 92.9525 338.329 92.4341 337.869 92.0117C337.446 91.5509 336.928 91.3205 336.313 91.3205H308.665C308.051 91.3205 307.513 91.5509 307.053 92.0117C306.63 92.4341 306.419 92.9525 306.419 93.5669V108.312ZM356.412 128.127C355.145 128.127 353.974 127.82 352.899 127.205C351.862 126.591 351.036 125.765 350.422 124.728C349.807 123.653 349.5 122.482 349.5 121.215V119.602H354.166V121.215C354.166 121.829 354.377 122.367 354.799 122.828C355.26 123.25 355.798 123.461 356.412 123.461H384.06C384.675 123.461 385.193 123.25 385.615 122.828C386.076 122.367 386.307 121.829 386.307 121.215V111.941C386.307 111.327 386.076 110.808 385.615 110.386C385.193 109.964 384.675 109.752 384.06 109.752H356.412C355.145 109.752 353.974 109.445 352.899 108.831C351.862 108.178 351.036 107.333 350.422 106.296C349.807 105.26 349.5 104.108 349.5 102.84V93.5669C349.5 92.2997 349.807 91.1477 350.422 90.1109C351.036 89.0357 351.862 88.1909 352.899 87.5765C353.974 86.9621 355.145 86.6549 356.412 86.6549H384.06C385.327 86.6549 386.479 86.9621 387.516 87.5765C388.591 88.1909 389.436 89.0357 390.051 90.1109C390.665 91.1477 390.972 92.2997 390.972 93.5669V95.1797H386.307V93.5669C386.307 92.9525 386.076 92.4341 385.615 92.0117C385.193 91.5509 384.675 91.3205 384.06 91.3205H356.412C355.798 91.3205 355.26 91.5509 354.799 92.0117C354.377 92.4341 354.166 92.9525 354.166 93.5669V102.84C354.166 103.455 354.377 103.973 354.799 104.396C355.26 104.818 355.798 105.029 356.412 105.029H384.06C385.327 105.029 386.479 105.356 387.516 106.008C388.591 106.623 389.436 107.448 390.051 108.485C390.665 109.522 390.972 110.674 390.972 111.941V121.215C390.972 122.482 390.665 123.653 390.051 124.728C389.436 125.765 388.591 126.591 387.516 127.205C386.479 127.82 385.327 128.127 384.06 128.127H356.412Z" fill="white"/>
<path d="M526.984 64.8623C526.379 62.0265 525.513 59.3102 524.418 56.7463C525.005 54.656 525.323 52.4419 525.323 50.1476C525.323 37.4367 515.675 27.1326 503.774 27.1326C498.564 27.1326 493.787 29.1068 490.061 32.3929C486.677 28.6594 481.708 26.3064 476.169 26.3064H472.395C472.367 26.3064 472.34 26.306 472.312 26.306C459.986 26.306 406 26.306 406 26.306C406 26.306 410.276 29.1287 416.696 33.1853H428.534V34.3732H418.582C421.854 36.4287 425.575 38.7341 429.507 41.1136H437.859V42.3015H431.478C435.237 44.5579 439.148 46.8535 443.015 49.042H448.681V50.2299H445.129C451.007 53.5092 456.698 56.474 461.496 58.6006C461.496 58.601 461.496 58.6013 461.496 58.6017C459.669 63.4836 458.656 68.8736 458.656 74.5336C458.656 78.5166 459.161 82.3585 460.09 85.9908C464.35 102.588 477.617 114.694 493.326 114.694C494.854 114.694 496.358 114.581 497.83 114.359C485.179 112.174 475.476 99.5361 475.476 84.2774C475.476 75.2794 478.852 67.1966 484.212 61.6252C485.273 60.5246 486.415 59.5208 487.622 58.6299C491.701 55.6104 496.542 53.8568 501.738 53.8568C502.055 53.8568 502.368 53.8689 502.681 53.885C507.522 54.0825 512.022 55.7958 515.851 58.6299C517.166 59.6015 518.398 60.698 519.54 61.9155C520.866 63.3345 522.063 64.9108 523.114 66.612C525.035 69.7283 526.458 73.2759 527.259 77.1057C527.44 77.9765 527.593 78.8553 527.708 79.7503C527.802 78.9117 527.871 78.0692 527.92 77.2145C527.972 76.3276 528 75.4367 528 74.5336C528 71.1996 527.645 67.9624 526.984 64.8623ZM518.868 48.8195C518.179 48.8195 517.62 48.1725 517.62 47.3743C517.62 46.5761 518.179 45.929 518.868 45.929C519.557 45.929 520.116 46.5761 520.116 47.3743C520.116 48.1725 519.557 48.8195 518.868 48.8195Z" fill="#292F36"/>
</svg>
